<svg id="ico-24-check-on" xmlns="http://www.w3.org/2000/svg" xmlns:xlink="http://www.w3.org/1999/xlink" width="24" height="24" viewBox="0 0 24 24">
  <defs>
    <clipPath id="clip-path">
      <rect id="mask" width="24" height="24" transform="translate(16 279)" fill="#fff"/>
    </clipPath>
  </defs>
  <g id="ico-24-check-on-2" data-name="ico-24-check-on" transform="translate(-16 -279)" clip-path="url(#clip-path)">
    <rect id="area" width="18" height="18" rx="6" transform="translate(19 282)" fill="#006bdc"/>
    <path id="합치기_118" data-name="합치기 118" d="M-896.465-1189.929l-2.828-2.829a1,1,0,0,1,0-1.414,1,1,0,0,1,1.414,0l2.121,2.121,4.243-4.242a1,1,0,0,1,1.414,0,1,1,0,0,1,0,1.414l-4.949,4.95a1,1,0,0,1-.707.293A1,1,0,0,1-896.465-1189.929Z" transform="translate(922.697 1484.111)" fill="#fff"/>
  </g>
</svg>
